<svg xmlns="http://www.w3.org/2000/svg" width="32" height="32" viewBox="0 0 24 24">
  <g transform="translate(-0.9 -0.9) scale(1.15)">
    <path fill="#d3d2d1" d="M12 17.308L15.308 14l-.714-.713L12 15.88l-2.594-2.594l-.714.713zm-2.594-6.594L12 8.119l2.594 2.594l.714-.713L12 6.692L8.692 10zM5.616 20q-.691 0-1.153-.462T4 18.384V5.616q0-.691.463-1.153T5.616 4h12.769q.69 0 1.153.463T20 5.616v12.769q0 .69-.462 1.153T18.384 20zm0-1h12.769q.23 0 .423-.192t.192-.424V5.616q0-.231-.192-.424T18.384 5H5.616q-.231 0-.424.192T5 5.616v12.769q0 .23.192.423t.423.192M5 5v14z"/>
  </g>
</svg>
